REM DIRINDEX 1\2,1\3,1\4,1\5
REM DIRNAME "folder01","folder02","folder03","folder04","folder05"
TITLE ""
FILE "1Q_t_1478-1487.mp3" MP3
  TRACK 01 AUDIO
    TITLE "3:cjc172_5415"
    INDEX 01 00:00:00
  TRACK 02 AUDIO
    TITLE "0:"
    INDEX 01 00:01:22
  TRACK 03 AUDIO
    TITLE "4:cjc172_5416"
    INDEX 01 00:01:27
  TRACK 04 AUDIO
    TITLE "0:"
    INDEX 01 00:04:41
  TRACK 05 AUDIO
    TITLE "5:cjc172_5417"
    INDEX 01 00:04:47
  TRACK 06 AUDIO
    TITLE "0:"
    INDEX 01 00:09:09
  TRACK 07 AUDIO
    TITLE "3:cjc172_5418"
    INDEX 01 00:09:52
  TRACK 08 AUDIO
    TITLE "0:"
    INDEX 01 00:10:64
  TRACK 09 AUDIO
    TITLE "4:cjc172_5419"
    INDEX 01 00:10:71
  TRACK 10 AUDIO
    TITLE "0:"
    INDEX 01 00:13:05
  TRACK 11 AUDIO
    TITLE "5:cjc172_5420"
    INDEX 01 00:13:13
  TRACK 12 AUDIO
    TITLE "0:"
    INDEX 01 00:18:65
  TRACK 13 AUDIO
    TITLE "3:cjc172_5421"
    INDEX 01 00:19:35
  TRACK 14 AUDIO
    TITLE "0:"
    INDEX 01 00:20:52
  TRACK 15 AUDIO
    TITLE "4:cjc172_5422"
    INDEX 01 00:20:62
  TRACK 16 AUDIO
    TITLE "0:"
    INDEX 01 00:24:17
  TRACK 17 AUDIO
    TITLE "5:cjc172_5423"
    INDEX 01 00:24:25
  TRACK 18 AUDIO
    TITLE "0:"
    INDEX 01 00:29:22
  TRACK 19 AUDIO
    TITLE "3:cjc172_5424"
    INDEX 01 00:29:67
  TRACK 20 AUDIO
    TITLE "0:"
    INDEX 01 00:31:01
  TRACK 21 AUDIO
    TITLE "4:cjc172_5425"
    INDEX 01 00:31:09
  TRACK 22 AUDIO
    TITLE "0:"
    INDEX 01 00:32:36
  TRACK 23 AUDIO
    TITLE "5:cjc172_5426"
    INDEX 01 00:32:42
  TRACK 24 AUDIO
    TITLE "0:"
    INDEX 01 00:38:48
  TRACK 25 AUDIO
    TITLE "3:cjc172_5427"
    INDEX 01 00:39:18
  TRACK 26 AUDIO
    TITLE "0:"
    INDEX 01 00:40:29
  TRACK 27 AUDIO
    TITLE "4:cjc172_5428"
    INDEX 01 00:40:37
  TRACK 28 AUDIO
    TITLE "0:"
    INDEX 01 00:44:45
  TRACK 29 AUDIO
    TITLE "5:cjc172_5429"
    INDEX 01 00:44:51
  TRACK 30 AUDIO
    TITLE "0:"
    INDEX 01 00:50:04
  TRACK 31 AUDIO
    TITLE "3:cjc172_5430"
    INDEX 01 00:50:47
  TRACK 32 AUDIO
    TITLE "0:"
    INDEX 01 00:51:53
  TRACK 33 AUDIO
    TITLE "4:cjc172_5431"
    INDEX 01 00:51:63
  TRACK 34 AUDIO
    TITLE "0:"
    INDEX 01 00:54:22
  TRACK 35 AUDIO
    TITLE "5:cjc172_5432"
    INDEX 01 00:54:30
  TRACK 36 AUDIO
    TITLE "0:"
    INDEX 01 00:58:45
  TRACK 37 AUDIO
    TITLE "3:cjc172_5433"
    INDEX 01 00:59:15
  TRACK 38 AUDIO
    TITLE "0:"
    INDEX 01 01:00:32
  TRACK 39 AUDIO
    TITLE "4:cjc172_5434"
    INDEX 01 01:00:40
  TRACK 40 AUDIO
    TITLE "0:"
    INDEX 01 01:01:61
  TRACK 41 AUDIO
    TITLE "5:cjc172_5435"
    INDEX 01 01:01:67
  TRACK 42 AUDIO
    TITLE "0:"
    INDEX 01 01:06:25
  TRACK 43 AUDIO
    TITLE "3:cjc172_5436"
    INDEX 01 01:06:70
  TRACK 44 AUDIO
    TITLE "0:"
    INDEX 01 01:08:12
  TRACK 45 AUDIO
    TITLE "4:cjc172_5437"
    INDEX 01 01:08:20
  TRACK 46 AUDIO
    TITLE "0:"
    INDEX 01 01:11:20
  TRACK 47 AUDIO
    TITLE "5:cjc172_5438"
    INDEX 01 01:11:28
  TRACK 48 AUDIO
    TITLE "0:"
    INDEX 01 01:16:27
  TRACK 49 AUDIO
    TITLE "3:cjc172_5439"
    INDEX 01 01:16:72
  TRACK 50 AUDIO
    TITLE "0:"
    INDEX 01 01:18:06
  TRACK 51 AUDIO
    TITLE "4:cjc172_5440"
    INDEX 01 01:18:16
  TRACK 52 AUDIO
    TITLE "0:"
    INDEX 01 01:19:49
  TRACK 53 AUDIO
    TITLE "5:cjc172_5441"
    INDEX 01 01:19:57
  TRACK 54 AUDIO
    TITLE "0:"
    INDEX 01 01:24:46
  TRACK 55 AUDIO
    TITLE "3:cjc172_5442"
    INDEX 01 01:25:24
  TRACK 56 AUDIO
    TITLE "0:"
    INDEX 01 01:26:47
  TRACK 57 AUDIO
    TITLE "4:cjc172_5443"
    INDEX 01 01:26:57
  TRACK 58 AUDIO
    TITLE "0:"
    INDEX 01 01:28:09
  TRACK 59 AUDIO
    TITLE "5:cjc172_5444"
    INDEX 01 01:28:17
  TRACK 60 AUDIO
    TITLE "0:"
    INDEX 01 01:32:58
